<?xml version="1.0" encoding="utf-8"?>
<!-- Generator: Adobe Illustrator 18.1.0, SVG Export Plug-In . SVG Version: 6.00 Build 0)  -->
<!DOCTYPE svg PUBLIC "-//W3C//DTD SVG 1.1//EN" "http://www.w3.org/Graphics/SVG/1.1/DTD/svg11.dtd">
<svg version="1.1" id="Layer_1" xmlns="http://www.w3.org/2000/svg" xmlns:xlink="http://www.w3.org/1999/xlink" x="0px" y="0px"
	 viewBox="0 0 139 138" enable-background="new 0 0 139 138" xml:space="preserve">
<g>
	<path fill="#00B7AF" d="M70.8,7.6v120.6l60.3-60.3L70.8,7.6z M89.8,88.9c-6.6,0-11.8-3.6-14-12l8-1.7c0.9,5.1,3.9,7,6.3,7
		c2.8,0,5-1.9,5-5.1c0-8-18.2-8.2-18.2-20.1c0-7.3,4.4-12,12.8-12c7.3,0,11.7,4.3,13.1,10.4l-7.3,2.1c-1.4-4-3.1-5.7-6-5.7
		c-2.9,0-4.5,1.8-4.5,4.7c0,6.4,18.2,6.9,18.2,20.3C103.4,84,98.3,88.9,89.8,88.9z"/>
	<path fill="#4E4E56" d="M7.1,67.9l60.3,60.3V7.6L7.1,67.9z M59.8,61.8h-8.2v-3.6c0-4.7-2.1-6-5.3-6s-5.3,1.3-5.3,6v17.4
		c0,4.7,2.1,6,5.3,6s5.3-1.3,5.3-6v-3.8h8.2v2.7c0,10.5-5.6,14.3-13.5,14.3s-13.5-3.8-13.5-14.3V59.3c0-10.5,5.6-14.3,13.5-14.3
		s13.5,3.8,13.5,14.3V61.8z"/>
</g>
</svg>
